# xmcd
#
# Track frame offsets: 
#        150
#        16302
#        29780
#        84765
#        96737
#        112652
#        130000
#        165132
#        207507
#        251437
#
# Disc length: 3997 seconds
#
# Revision: 1
# Processed by: cddbd v1.5.1PL0 Copyright (c) Steve Scherf et al.
# Submitted via: ExactAudioCopy v0.95a5
#
DISCID=750f9b0a
DTITLE=Various Artist - Ken Burn's Jazz Sampler
DYEAR=2000
DGENRE=Jazz
TTITLE0=Louis Armstrong and his Orchestra - Star Dust
TTITLE1=Billie Holiday - God Bless This Child
TTITLE2=Benny Goodman and his Orchestra - Sing Sing Sing (With A Swing
TTITLE2=)
TTITLE3=Chick Web and his Orchestra - A-Tisket A-Tasket
TTITLE4=Charlie Parker - Just Friends
TTITLE5=Thelonious Monk - Round Midnight
TTITLE6=John Coltrane - Acknowledgment (A love Supreme)
TTITLE7=Miles Davis - So What
TTITLE8=Duke Ellington and his Orchestra - Take The A Train
TTITLE9=Video - An Introduction To Jazz
EXTD=YEAR: 2000
EXTT0=
EXTT1=
EXTT2=
EXTT3=
EXTT4=
EXTT5=
EXTT6=
EXTT7=
EXTT8=
EXTT9=
PLAYORDER=
